# xmcd CD database file
#
# Track frame offsets:
#	150
#	2155
#	5892
#	11130
#	17332
#	24102
#	31840
#	38987
#	43550
#	49630
#	56570
#	63270
#	68395
#	79167
#	84785
#	95025
#	101347
#	112395
#	119550
#	127652
#	134745
#	140357
#	147215
#	156035
#	168810
#	177820
#	183077
#	190802
#	194027
#	202425
#	209267
#	216065
#	225905
#	230812
#	237980
#	242757
#	249717
#
# Disc length: 3339 seconds
#
# Revision: 0
# Processed by: cddbd v1.5.2PL0 Copyright (c) Steve Scherf et al.
# Submitted via: CDex 1.50beta10
#
DISCID=fa0d0925
DTITLE=Gene Autry - The Gene Autry Show (Episodes 65-91)
DYEAR=1900
DGENRE=Country
TTITLE0=Flying A Logo
TTITLE1=When The Bloom Is On The Sage
TTITLE2=Fetch Me Down My Trusty .45
TTITLE3=A Hillbilly Wedding in June
TTITLE4=God's Little Candles
TTITLE5=Crime Will Never Pay
TTITLE6=Let Me Ride Down In Rocky Canyon
TTITLE7=Ridin' All Day
TTITLE8=Silver Spurs On The Golden Stairs
TTITLE9=The Cowboy's Trademarks
TTITLE10=What's Gonna Happen To Me
TTITLE11=I've Got A Heart As Big As Texas
TTITLE12=Mama Don't Like Music (w Cass County Boys)
TTITLE13=Gallivantin' Galveston Gal (w Pat Buttram)
TTITLE14=Pretty Mary
TTITLE15=Gallivantin' Galveston Gal (w Cass Co Boys)
TTITLE16=Ridin' Down The Canyon (w Cass Co Boys)
TTITLE17='Neath The Blue Montana Skies
TTITLE18=Old MacDonald Had A Farm (w Cass Co Boys)
TTITLE19=Sing Me A Song Of The Saddle
TTITLE20=Mellow Mountain Moon (w Barbara Knudson)
TTITLE21=Marcheta
TTITLE22=Under Fiesta Stars
TTITLE23=Onteora (Cass County Boys)
TTITLE24=It's My Lazy Day (w Pat Buttram and The Cass Co Boys)
TTITLE25=Back In The Saddle Again
TTITLE26=When The Bloom Is On The Sage (w Cass Co Boys)
TTITLE27=Back In The Doghouse Again (w Cass Co Boys)
TTITLE28=Somebody Bigger Than You And I (w Cast)
TTITLE29=I Wish I Had Never Met Sunshine
TTITLE30=Yellow Rose Of Texas
TTITLE31=Sierra Nevada (w Cass Co Boys)
TTITLE32=Trail To Mexico (The Cass County Boys)
TTITLE33=Crime Will Never Pay
TTITLE34=There's Nothing Like A Good Old-Fashioned Hoedown
TTITLE35=You're The Only Good Thing (That's Happened To Me) (w Cass Co Boys)
TTITLE36=End Credit
EXTD=
EXTT0=
EXTT1=
EXTT2=
EXTT3=
EXTT4=
EXTT5=
EXTT6=
EXTT7=
EXTT8=
EXTT9=
EXTT10=
EXTT11=
EXTT12=
EXTT13=
EXTT14=
EXTT15=
EXTT16=
EXTT17=
EXTT18=
EXTT19=
EXTT20=
EXTT21=
EXTT22=
EXTT23=
EXTT24=
EXTT25=
EXTT26=
EXTT27=
EXTT28=
EXTT29=
EXTT30=
EXTT31=
EXTT32=
EXTT33=
EXTT34=
EXTT35=
EXTT36=
PLAYORDER=
